<mxfile host="app.diagrams.net" modified="2021-10-21T01:47:46.265Z" agent="5.0 (Macintosh; Intel Mac OS X 10_15_7) AppleWebKit/537.36 (KHTML, like Gecko) Chrome/94.0.4606.81 Safari/537.36" etag="qqs2_FR2EY-YW8miCo63" version="15.5.2" type="github">
  <diagram id="C5RBs43oDa-KdzZeNtuy" name="Page-1">
    <mxGraphModel dx="1186" dy="621" grid="1" gridSize="10" guides="1" tooltips="1" connect="1" arrows="1" fold="1" page="1" pageScale="1" pageWidth="827" pageHeight="1169" math="0" shadow="0">
      <root>
        <mxCell id="WIyWlLk6GJQsqaUBKTNV-0" />
        <mxCell id="WIyWlLk6GJQsqaUBKTNV-1" parent="WIyWlLk6GJQsqaUBKTNV-0" />
        <mxCell id="zHJnFDCS_xAZhOyIZzer-20" value="" style="edgeStyle=orthogonalEdgeStyle;rounded=0;orthogonalLoop=1;jettySize=auto;html=1;exitX=0.5;exitY=0;exitDx=0;exitDy=0;" edge="1" parent="WIyWlLk6GJQsqaUBKTNV-1" source="zHJnFDCS_xAZhOyIZzer-18" target="zHJnFDCS_xAZhOyIZzer-19">
          <mxGeometry relative="1" as="geometry" />
        </mxCell>
        <mxCell id="zHJnFDCS_xAZhOyIZzer-21" value="是" style="edgeLabel;html=1;align=center;verticalAlign=middle;resizable=0;points=[];" vertex="1" connectable="0" parent="zHJnFDCS_xAZhOyIZzer-20">
          <mxGeometry x="-0.1625" y="3" relative="1" as="geometry">
            <mxPoint y="-12" as="offset" />
          </mxGeometry>
        </mxCell>
        <mxCell id="zHJnFDCS_xAZhOyIZzer-23" value="" style="edgeStyle=orthogonalEdgeStyle;rounded=0;orthogonalLoop=1;jettySize=auto;html=1;" edge="1" parent="WIyWlLk6GJQsqaUBKTNV-1" source="zHJnFDCS_xAZhOyIZzer-18" target="zHJnFDCS_xAZhOyIZzer-22">
          <mxGeometry relative="1" as="geometry">
            <Array as="points">
              <mxPoint x="315" y="530" />
            </Array>
          </mxGeometry>
        </mxCell>
        <mxCell id="zHJnFDCS_xAZhOyIZzer-37" value="否" style="edgeLabel;html=1;align=center;verticalAlign=middle;resizable=0;points=[];" vertex="1" connectable="0" parent="zHJnFDCS_xAZhOyIZzer-23">
          <mxGeometry x="-0.5897" y="1" relative="1" as="geometry">
            <mxPoint x="24" as="offset" />
          </mxGeometry>
        </mxCell>
        <mxCell id="zHJnFDCS_xAZhOyIZzer-18" value="判断人员是否&lt;br&gt;已被删除？" style="rhombus;whiteSpace=wrap;html=1;" vertex="1" parent="WIyWlLk6GJQsqaUBKTNV-1">
          <mxGeometry x="270" y="390" width="90" height="80" as="geometry" />
        </mxCell>
        <mxCell id="zHJnFDCS_xAZhOyIZzer-19" value="提示报错：&lt;br&gt;当前员工已经删除，不支持审核" style="whiteSpace=wrap;html=1;" vertex="1" parent="WIyWlLk6GJQsqaUBKTNV-1">
          <mxGeometry x="450" y="340" width="200" height="50" as="geometry" />
        </mxCell>
        <mxCell id="zHJnFDCS_xAZhOyIZzer-25" value="" style="edgeStyle=orthogonalEdgeStyle;rounded=0;orthogonalLoop=1;jettySize=auto;html=1;exitX=1;exitY=0.5;exitDx=0;exitDy=0;" edge="1" parent="WIyWlLk6GJQsqaUBKTNV-1" source="zHJnFDCS_xAZhOyIZzer-26" target="zHJnFDCS_xAZhOyIZzer-24">
          <mxGeometry relative="1" as="geometry" />
        </mxCell>
        <mxCell id="zHJnFDCS_xAZhOyIZzer-28" value="是" style="edgeLabel;html=1;align=center;verticalAlign=middle;resizable=0;points=[];" vertex="1" connectable="0" parent="zHJnFDCS_xAZhOyIZzer-25">
          <mxGeometry x="-0.2771" y="4" relative="1" as="geometry">
            <mxPoint as="offset" />
          </mxGeometry>
        </mxCell>
        <mxCell id="zHJnFDCS_xAZhOyIZzer-27" style="edgeStyle=orthogonalEdgeStyle;rounded=0;orthogonalLoop=1;jettySize=auto;html=1;exitX=1;exitY=0.5;exitDx=0;exitDy=0;" edge="1" parent="WIyWlLk6GJQsqaUBKTNV-1" source="zHJnFDCS_xAZhOyIZzer-22" target="zHJnFDCS_xAZhOyIZzer-26">
          <mxGeometry relative="1" as="geometry" />
        </mxCell>
        <mxCell id="zHJnFDCS_xAZhOyIZzer-22" value="更新表状态" style="whiteSpace=wrap;html=1;" vertex="1" parent="WIyWlLk6GJQsqaUBKTNV-1">
          <mxGeometry x="450" y="500" width="120" height="60" as="geometry" />
        </mxCell>
        <mxCell id="zHJnFDCS_xAZhOyIZzer-32" style="edgeStyle=orthogonalEdgeStyle;rounded=0;orthogonalLoop=1;jettySize=auto;html=1;exitX=0.5;exitY=1;exitDx=0;exitDy=0;entryX=1;entryY=0.5;entryDx=0;entryDy=0;" edge="1" parent="WIyWlLk6GJQsqaUBKTNV-1" source="zHJnFDCS_xAZhOyIZzer-24" target="zHJnFDCS_xAZhOyIZzer-29">
          <mxGeometry relative="1" as="geometry" />
        </mxCell>
        <mxCell id="zHJnFDCS_xAZhOyIZzer-24" value="调用客户接口通知审核通过" style="whiteSpace=wrap;html=1;" vertex="1" parent="WIyWlLk6GJQsqaUBKTNV-1">
          <mxGeometry x="813" y="500" width="120" height="60" as="geometry" />
        </mxCell>
        <mxCell id="zHJnFDCS_xAZhOyIZzer-30" value="" style="edgeStyle=orthogonalEdgeStyle;rounded=0;orthogonalLoop=1;jettySize=auto;html=1;" edge="1" parent="WIyWlLk6GJQsqaUBKTNV-1" source="zHJnFDCS_xAZhOyIZzer-26" target="zHJnFDCS_xAZhOyIZzer-29">
          <mxGeometry relative="1" as="geometry" />
        </mxCell>
        <mxCell id="zHJnFDCS_xAZhOyIZzer-31" value="否" style="edgeLabel;html=1;align=center;verticalAlign=middle;resizable=0;points=[];" vertex="1" connectable="0" parent="zHJnFDCS_xAZhOyIZzer-30">
          <mxGeometry x="-0.3333" relative="1" as="geometry">
            <mxPoint x="10" y="10" as="offset" />
          </mxGeometry>
        </mxCell>
        <mxCell id="zHJnFDCS_xAZhOyIZzer-26" value="更新是否&lt;br&gt;通过？" style="rhombus;whiteSpace=wrap;html=1;" vertex="1" parent="WIyWlLk6GJQsqaUBKTNV-1">
          <mxGeometry x="650" y="490" width="80" height="80" as="geometry" />
        </mxCell>
        <mxCell id="zHJnFDCS_xAZhOyIZzer-29" value="调用钉钉接口清除代办" style="whiteSpace=wrap;html=1;" vertex="1" parent="WIyWlLk6GJQsqaUBKTNV-1">
          <mxGeometry x="630" y="660" width="120" height="60" as="geometry" />
        </mxCell>
        <mxCell id="zHJnFDCS_xAZhOyIZzer-34" style="edgeStyle=orthogonalEdgeStyle;rounded=0;orthogonalLoop=1;jettySize=auto;html=1;exitX=1;exitY=0.5;exitDx=0;exitDy=0;entryX=0;entryY=0.531;entryDx=0;entryDy=0;entryPerimeter=0;" edge="1" parent="WIyWlLk6GJQsqaUBKTNV-1" source="zHJnFDCS_xAZhOyIZzer-33" target="zHJnFDCS_xAZhOyIZzer-42">
          <mxGeometry relative="1" as="geometry">
            <mxPoint x="280" y="170" as="targetPoint" />
          </mxGeometry>
        </mxCell>
        <mxCell id="zHJnFDCS_xAZhOyIZzer-33" value="前端发起请求" style="rounded=0;whiteSpace=wrap;html=1;" vertex="1" parent="WIyWlLk6GJQsqaUBKTNV-1">
          <mxGeometry x="60" y="125" width="150" height="80" as="geometry" />
        </mxCell>
        <mxCell id="zHJnFDCS_xAZhOyIZzer-36" style="edgeStyle=orthogonalEdgeStyle;rounded=0;orthogonalLoop=1;jettySize=auto;html=1;exitX=1;exitY=0.5;exitDx=0;exitDy=0;" edge="1" parent="WIyWlLk6GJQsqaUBKTNV-1" source="zHJnFDCS_xAZhOyIZzer-35" target="zHJnFDCS_xAZhOyIZzer-18">
          <mxGeometry relative="1" as="geometry" />
        </mxCell>
        <mxCell id="zHJnFDCS_xAZhOyIZzer-35" value="前端发起请求" style="rounded=0;whiteSpace=wrap;html=1;" vertex="1" parent="WIyWlLk6GJQsqaUBKTNV-1">
          <mxGeometry x="60" y="400" width="120" height="60" as="geometry" />
        </mxCell>
        <mxCell id="zHJnFDCS_xAZhOyIZzer-44" value="" style="edgeStyle=orthogonalEdgeStyle;rounded=0;orthogonalLoop=1;jettySize=auto;html=1;" edge="1" parent="WIyWlLk6GJQsqaUBKTNV-1" source="zHJnFDCS_xAZhOyIZzer-42" target="zHJnFDCS_xAZhOyIZzer-43">
          <mxGeometry relative="1" as="geometry" />
        </mxCell>
        <mxCell id="zHJnFDCS_xAZhOyIZzer-42" value="查询当前审批人所在的部门、岗位与职级" style="rounded=0;whiteSpace=wrap;html=1;" vertex="1" parent="WIyWlLk6GJQsqaUBKTNV-1">
          <mxGeometry x="300" y="122.5" width="160" height="80" as="geometry" />
        </mxCell>
        <mxCell id="zHJnFDCS_xAZhOyIZzer-46" value="" style="edgeStyle=orthogonalEdgeStyle;rounded=0;orthogonalLoop=1;jettySize=auto;html=1;" edge="1" parent="WIyWlLk6GJQsqaUBKTNV-1" source="zHJnFDCS_xAZhOyIZzer-43" target="zHJnFDCS_xAZhOyIZzer-45">
          <mxGeometry relative="1" as="geometry" />
        </mxCell>
        <mxCell id="zHJnFDCS_xAZhOyIZzer-43" value="查询当前部门、职级下配置的岗位、职级，且职级小于等于当前职级" style="whiteSpace=wrap;html=1;rounded=0;" vertex="1" parent="WIyWlLk6GJQsqaUBKTNV-1">
          <mxGeometry x="550" y="122.5" width="170" height="80" as="geometry" />
        </mxCell>
        <mxCell id="zHJnFDCS_xAZhOyIZzer-48" value="" style="edgeStyle=orthogonalEdgeStyle;rounded=0;orthogonalLoop=1;jettySize=auto;html=1;" edge="1" parent="WIyWlLk6GJQsqaUBKTNV-1" source="zHJnFDCS_xAZhOyIZzer-45" target="zHJnFDCS_xAZhOyIZzer-47">
          <mxGeometry relative="1" as="geometry" />
        </mxCell>
        <mxCell id="zHJnFDCS_xAZhOyIZzer-45" value="查询在指定部门、岗位下的所有员工信息（包含被删除的员工）" style="whiteSpace=wrap;html=1;rounded=0;" vertex="1" parent="WIyWlLk6GJQsqaUBKTNV-1">
          <mxGeometry x="820" y="122.5" width="170" height="80" as="geometry" />
        </mxCell>
        <mxCell id="zHJnFDCS_xAZhOyIZzer-47" value="分页查询员工申请信息" style="whiteSpace=wrap;html=1;rounded=0;" vertex="1" parent="WIyWlLk6GJQsqaUBKTNV-1">
          <mxGeometry x="1100" y="120" width="175" height="85" as="geometry" />
        </mxCell>
      </root>
    </mxGraphModel>
  </diagram>
</mxfile>
